<?xml version="1.0" encoding="UTF-8"?>
<svg width="142px" height="24px" viewBox="0 0 142 24" version="1.1" xmlns="http://www.w3.org/2000/svg" xmlns:xlink="http://www.w3.org/1999/xlink">
    <g id="页面-1" stroke="none" stroke-width="1" fill="none" fill-rule="evenodd">
        <g id="Chronos" transform="translate(-42, -29)">
            <g id="编组-2" transform="translate(42, 29)">
                <g id="编组" fill="#0029A6">
                    <circle id="椭圆形备份-83" transform="translate(3.3231, 11.4462) rotate(45) translate(-3.3231, -11.4462)" cx="3.32307692" cy="11.4461538" r="2.34977023"></circle>
                    <circle id="椭圆形备份-86" transform="translate(7.9385, 16.0615) rotate(45) translate(-7.9385, -16.0615)" cx="7.93846154" cy="16.0615385" r="2.34977023"></circle>
                    <circle id="椭圆形备份-89" transform="translate(12.5538, 20.6769) rotate(45) translate(-12.5538, -20.6769)" cx="12.5538462" cy="20.6769231" r="2.34977023"></circle>
                    <circle id="椭圆形备份-84" opacity="0.8" transform="translate(8.2154, 6.5538) rotate(45) translate(-8.2154, -6.5538)" cx="8.21538462" cy="6.55384615" r="1.95814186"></circle>
                    <circle id="椭圆形备份-87" opacity="0.8" transform="translate(12.8308, 11.1692) rotate(45) translate(-12.8308, -11.1692)" cx="12.8307692" cy="11.1692308" r="1.95814186"></circle>
                    <circle id="椭圆形备份-90" opacity="0.8" transform="translate(17.4462, 15.7846) rotate(45) translate(-17.4462, -15.7846)" cx="17.4461538" cy="15.7846154" r="1.95814186"></circle>
                    <circle id="椭圆形备份-85" opacity="0.6" transform="translate(12.5538, 2.2154) rotate(45) translate(-12.5538, -2.2154)" cx="12.5538462" cy="2.21538462" r="1.56651348"></circle>
                    <circle id="椭圆形备份-91" opacity="0.6" transform="translate(21.7846, 11.4462) rotate(45) translate(-21.7846, -11.4462)" cx="21.7846154" cy="11.4461538" r="1.56651348"></circle>
                </g>
                <path d="M44.18,20 L45.56,18.62 L45.56,15.82 L42.78,15.82 L42.78,17.2 L35.8,17.2 L35.8,8.8 L42.78,8.8 L42.78,10.2 L45.56,10.2 L45.56,7.42 L44.18,6 L34.38,6 L33,7.42 L33,18.62 L34.38,20 L44.18,20 Z M51.66,20 L51.66,14.42 L58.64,14.42 L58.64,20 L61.42,20 L61.42,6 L58.64,6 L58.64,11.62 L51.66,11.62 L51.66,6 L48.86,6 L48.86,20 L51.66,20 Z M67.72,13.02 L67.72,8.8 L74.7,8.8 L74.7,13.02 L67.72,13.02 Z M77.48,20 L77.48,17.2 L76.1,15.82 L77.48,14.42 L77.48,7.42 L76.1,6 L64.92,6 L64.92,20 L67.72,20 L67.72,15.82 L71.9,15.82 L73.3,17.2 L74.7,18.62 L74.7,20 L77.48,20 Z M83.78,17.2 L83.78,8.8 L90.76,8.8 L90.76,17.2 L83.78,17.2 Z M92.16,20 L93.54,18.62 L93.54,7.42 L92.16,6 L82.36,6 L80.98,7.42 L80.98,18.62 L82.36,20 L92.16,20 Z M109.6,20 L109.6,6 L106.82,6 L106.82,15.32 L99.84,6 L97.04,6 L97.04,20 L99.84,20 L99.84,10.66 L106.82,20 L109.6,20 Z M115.9,17.2 L115.9,8.8 L122.88,8.8 L122.88,17.2 L115.9,17.2 Z M124.28,20 L125.66,18.62 L125.66,7.42 L124.28,6 L114.48,6 L113.1,7.42 L113.1,18.62 L114.48,20 L124.28,20 Z M140.34,20 L141.72,18.62 L141.72,13 L140.34,11.6 L131.96,11.6 L131.96,8.8 L138.94,8.8 L138.94,10.2 L141.72,10.2 L141.72,7.42 L140.34,6 L130.54,6 L129.16,7.42 L129.16,13.42 L130.54,14.42 L138.94,14.42 L138.94,17.2 L131.96,17.2 L131.96,15.82 L129.16,15.82 L129.16,18.62 L130.54,20 L140.34,20 Z" id="形状结合" fill="currentColor" fill-rule="nonzero"></path>
            </g>
        </g>
    </g>
</svg>
